<?xml version="1.0" encoding="utf-8"?>
<svg xmlns="http://www.w3.org/2000/svg" viewBox="0 0 694.6 198.5" xml:space="preserve"><path d="M24.4 127.1H10V71.4h59.7c2.9 0 5.3 1 7.3 2.9s3 4.3 3 7v35.8c0 2.8-1 5.1-3 7-2 1.9-4.4 2.9-7.3 2.9H30.6l-4.1-11.9h35c1.1 0 2.1-.4 2.9-1.2.8-.8 1.2-1.7 1.2-2.8V87.3c0-1.1-.4-2-1.2-2.8-.8-.8-1.8-1.2-2.9-1.2H24.4v43.8zm116.1-8h-22.7l-4.1-11.9h20.6L123 85.3l-21.6 41.8H84.9l28.8-55.7h14.4c2.7 0 4.8 1.3 6.2 4l26.8 51.7h-16.5l-4.1-8zm28.8 8-28.8-55.7h18.3l19.8 39.9 19.8-39.9h18.3l-28.8 55.7h-18.6zm64.6-15.9c0 1.1.4 2 1.2 2.8.8.8 1.8 1.2 2.9 1.2h43.6v11.9h-51.9c-2.9 0-5.3-1-7.3-2.9s-3-4.3-3-7V81.3c0-2.8 1-5.1 3-7 2-1.9 4.4-2.9 7.3-2.9h51.9v11.9H238c-1.1 0-2.1.4-2.9 1.2-.8.8-1.2 1.7-1.2 2.8v23.9zm38.4-17.9 6 11.9H242l-5.1-11.9h35.4zm72.2 17.9v-6h-20.3l-6-11.9h40.6v23.9c0 2.8-1 5.1-3 7-2 1.9-4.4 2.9-7.3 2.9h-49.4c-2.9 0-5.3-1-7.3-2.9s-3-4.3-3-7V81.3c0-2.8 1-5.1 3-7 2-1.9 4.4-2.9 7.3-2.9h49.4c2.9 0 5.3 1 7.3 2.9s3 4.3 3 7v2h-51.5c-1.1 0-2.1.4-2.9 1.2-.8.8-1.2 1.7-1.2 2.8v23.9c0 1.1.4 2 1.2 2.8.8.8 1.8 1.2 2.9 1.2h32.9c1.1 0 2.1-.4 2.9-1.2 1-.8 1.4-1.7 1.4-2.8zm73.8 7.9h-22.7l-4.1-11.9h20.6l-11.3-21.9-21.6 41.8h-16.5l28.8-55.7H406c2.7 0 4.8 1.3 6.2 4l26.8 51.7h-16.5l-4.2-8zM462 95.3v31.8h-16.3V71.4H462c2.7 0 4.5.7 5.2 2l20.6 28.9 20.6-28.9c.7-1.3 2.4-2 5.1-2h16.3v55.7h-16.3V95.3l-21.1 31.8h-8.3L462 95.3zm75.9 31.8V71.4h55.6c2.9 0 5.3 1 7.3 2.9s3 4.3 3 7v13.9c.4.3.8.6 1.1 1 2 1.9 3 4.3 3 7v13.9c0 2.8-1 5.1-3 7-2 1.9-4.4 2.9-7.3 2.9h-59.7zm14.4-11.9h37.1c1.1 0 2.1-.4 2.9-1.2.8-.8 1.2-1.7 1.2-2.8v-2c0-1.1-.4-2-1.2-2.8-.8-.8-1.8-1.2-2.9-1.2h-30.9l-4.1-11.9h30.9c1.1 0 2.1-.4 2.9-1.2.8-.8 1.2-1.7 1.2-2.8v-2c0-1.1-.4-2-1.2-2.8-.8-.8-1.8-1.2-2.9-1.2h-32.9v31.9zm111.7 3.9h-22.7l-4.1-11.9h20.6l-11.3-21.9-21.6 41.8h-16.5l28.8-55.7h14.4c2.7 0 4.8 1.3 6.2 4l26.8 51.7h-16.5l-4.1-8z" fill="#00b0fc"/></svg>